# xmcd
#
# Track frame offsets:
#	150
#	4098
#	18713
#	33595
#	48298
#	63042
#	76295
#	88930
#	105498
#	120643
#
# Disc length: 1653 seconds
#
# Revision: 1
# Processed by: cddbd v1.5.2PL0 Copyright (c) Steve Scherf et al.
# Submitted via: audiograbber 1.83.01
#
DISCID=7406730a
DTITLE=Spiritans Diarrhoe - Alles Gude zum Schluﬂ
DYEAR=2009
DGENRE=Acoustic Death Pop
TTITLE0=Intro
TTITLE1=Alles Gude
TTITLE2=Hoch die Tasse
TTITLE3=Palz fer disch
TTITLE4=Mischbattrie
TTITLE5=Ereilt
TTITLE6=Kerngesund unn kuchelrund
TTITLE7=Liewer nemm isch's locker
TTITLE8=Voll de Schadde
TTITLE9=Schluﬂ
EXTD=31.12.2009 Pfarrheim - Heiligenstein
EXTT0=
EXTT1=
EXTT2=
EXTT3=
EXTT4=
EXTT5=
EXTT6=
EXTT7=
EXTT8=
EXTT9=
PLAYORDER=
